<svg xmlns="http://www.w3.org/2000/svg" width="211" height="209.714" viewBox="0 0 211 209.714">
  <g id="Group_1658" data-name="Group 1658" transform="translate(-3.005 -3.2)">
    <path id="Path_1347" data-name="Path 1347" d="M58.053,33.47a23.823,23.823,0,0,1,23.46,19.916H80.005a4.23,4.23,0,0,0-3.347,6.823l5.151,6.651a4.248,4.248,0,0,0,6.7,0l5.151-6.651a4.23,4.23,0,0,0-3.347-6.823H88.177A30.425,30.425,0,0,0,58.053,26.875C53.694,26.875,53.688,33.47,58.053,33.47Z" transform="translate(118.951 54.39)" fill="#fff"/>
    <path id="Path_1348" data-name="Path 1348" d="M162.9,120.157V83.788a13.08,13.08,0,0,0,12.036-13.024V47.879A13.088,13.088,0,0,0,161.84,34.855H126.162A21,21,0,0,0,108.027,3.2H104.8A20.676,20.676,0,0,0,89,10.455,20.936,20.936,0,0,0,73.108,3.2H69.876a20.963,20.963,0,0,0-21,21.037,20.436,20.436,0,0,0,2.9,10.618H16.063A13.059,13.059,0,0,0,3.005,47.879V70.764A13.08,13.08,0,0,0,15.04,83.788V160.65a22.685,22.685,0,0,0,22.686,22.686c39.436.179,52.761.274,86.49,0A46.486,46.486,0,0,0,214,166.453C214,138.377,189.352,117.293,162.9,120.157Zm4.616,86.162a39.9,39.9,0,1,1,39.9-39.867A39.935,39.935,0,0,1,167.512,206.319Zm-98.3-90.976H25.427V83.822l43.789.164Zm83.259,0H108.719V83.986l43.756-.164Zm9.364-70.07a2.605,2.605,0,0,1,2.671,2.605V70.764a2.638,2.638,0,0,1-2.671,2.669H116.2V45.274Zm-67.7-21.037A10.638,10.638,0,0,1,104.8,13.62h3.231a10.609,10.609,0,0,1,1.781,21.069H94.145ZM69.876,13.62h3.231A10.589,10.589,0,0,1,83.725,24.237V34.689h-15.6A10.606,10.606,0,0,1,69.876,13.62ZM13.424,70.764V47.879a2.6,2.6,0,0,1,2.638-2.605H61.7v28.16H16.063A2.631,2.631,0,0,1,13.424,70.764Zm24.3,102.185a12.3,12.3,0,0,1-12.3-12.3V142.284H69.216v30.665Zm70.993,0V142.284h19.059a46.432,46.432,0,0,0-6.3,30.665Z" transform="translate(0 0)" fill="#fff"/>
    <path id="Path_1349" data-name="Path 1349" d="M75.364,42.92A32.249,32.249,0,1,0,107.612,75.2,32.306,32.306,0,0,0,75.364,42.92Zm15.3,31.227-4.616,4.484a2.725,2.725,0,0,0-.791,2.441l1.088,6.363a2.759,2.759,0,0,1-3.99,2.9l-5.737-3a2.669,2.669,0,0,0-2.539,0l-5.737,3a2.732,2.732,0,0,1-3.957-2.9l.494-2.835.594-3.528a2.918,2.918,0,0,0-.792-2.441c-4.559-4.438-4.834-4.556-5.078-5.044a2.746,2.746,0,0,1,.693-3.594c1-.731,1.454-.447,7.65-1.484a2.736,2.736,0,0,0,2.077-1.483l2.869-5.8a2.734,2.734,0,0,1,4.913,0l2.869,5.8a2.792,2.792,0,0,0,2.077,1.483l6.4.956A2.748,2.748,0,0,1,90.663,74.147Z" transform="translate(92.148 91.252)" fill="#fff"/>
  </g>
</svg>
